# xmcd CD database file
#
# Track frame offsets:
#	150
#	26738
#	65502
#	85655
#	107459
#	153432
#
# Disc length: 2421 seconds
#
# Revision: 0
# Processed by: cddbd v1.4PL0 Copyright (c) Steve Scherf et al.
# Submitted via: CDex 1.50Beta7
#
DISCID=3f097306
DTITLE=The Jazztet - At Birdhouse
DYEAR=1961
DGENRE=Jazz
TTITLE0=Junction
TTITLE1=Farmer's Market
TTITLE2=Darn That Dream
TTITLE3=Shutterbug
TTITLE4='round Midnight
TTITLE5=November Afternoon
EXTD=YEAR: 1961
EXTT0=
EXTT1=
EXTT2=
EXTT3=
EXTT4=
EXTT5=
PLAYORDER=
